name C:\Users\u0093377\Documents\Projects\3-Antoinne\AdDB\\GRF\AdDB_Gait_7_GRF.mot
datacolumns 19
datarows 22
range 0.70300000 0.72400000
endheader

                time	     ground_force_vx	     ground_force_vy	     ground_force_vz	     ground_force_px	     ground_force_py	     ground_force_pz	   1_ground_force_vx	   1_ground_force_vy	   1_ground_force_vz	   1_ground_force_px	   1_ground_force_py	   1_ground_force_pz	     ground_torque_x	     ground_torque_y	     ground_torque_z	   1_ground_torque_x	   1_ground_torque_y	   1_ground_torque_z	
          0.70300000	          0.00000000	          0.00000000	          0.00000000	          0.00000000	          0.00000000	          0.00000000	        -99.17630255	        446.31007281	         -7.52409792	         -0.68535910	          0.00000000	         -0.13494551	          0.00000000	          0.00000000	          0.00000000	          0.00000000	         -1.11199846	          0.00000000	
          0.70400000	          0.00000000	          0.00000000	          0.00000000	          0.00000000	          0.00000000	          0.00000000	       -100.76789783	        451.59850087	         -8.43337706	         -0.68460690	          0.00000000	         -0.13480235	          0.00000000	          0.00000000	          0.00000000	          0.00000000	         -1.12754083	          0.00000000	
          0.70500000	          0.00000000	          0.00000000	          0.00000000	          0.00000000	          0.00000000	          0.00000000	       -102.33652777	        456.93417133	         -9.32155459	         -0.68385796	          0.00000000	         -0.13466808	          0.00000000	          0.00000000	          0.00000000	          0.00000000	         -1.14067072	          0.00000000	
          0.70600000	          0.00000000	          0.00000000	          0.00000000	          0.00000000	          0.00000000	          0.00000000	       -103.88174640	        462.31853457	        -10.18713174	         -0.68311311	          0.00000000	         -0.13454276	          0.00000000	          0.00000000	          0.00000000	          0.00000000	         -1.15135395	          0.00000000	
          0.70700000	          0.00000000	          0.00000000	          0.00000000	          0.00000000	          0.00000000	          0.00000000	       -105.40298786	        467.75271450	        -11.02878376	         -0.68237312	          0.00000000	         -0.13442641	          0.00000000	          0.00000000	          0.00000000	          0.00000000	         -1.15957049	          0.00000000	
          0.70800000	          0.00000000	          0.00000000	          0.00000000	          0.00000000	          0.00000000	          0.00000000	       -106.89957218	        473.23749666	        -11.84536133	         -0.68163875	          0.00000000	         -0.13431900	          0.00000000	          0.00000000	          0.00000000	          0.00000000	         -1.16531437	          0.00000000	
          0.70900000	          0.00000000	          0.00000000	          0.00000000	          0.00000000	          0.00000000	          0.00000000	       -108.37071389	        478.77331294	        -12.63589140	         -0.68091072	          0.00000000	         -0.13422048	          0.00000000	          0.00000000	          0.00000000	          0.00000000	         -1.16859346	          0.00000000	
          0.71000000	          0.00000000	          0.00000000	          0.00000000	          0.00000000	          0.00000000	          0.00000000	       -109.81553342	        484.36022135	        -13.39957654	         -0.68018971	          0.00000000	         -0.13413074	          0.00000000	          0.00000000	          0.00000000	          0.00000000	         -1.16942962	          0.00000000	
          0.71100000	          0.00000000	          0.00000000	          0.00000000	          0.00000000	          0.00000000	          0.00000000	       -111.23307100	        489.99788209	        -14.13579135	         -0.67947635	          0.00000000	         -0.13404968	          0.00000000	          0.00000000	          0.00000000	          0.00000000	         -1.16785874	          0.00000000	
          0.71200000	          0.00000000	          0.00000000	          0.00000000	          0.00000000	          0.00000000	          0.00000000	       -112.62230226	        495.68553350	        -14.84407654	         -0.67877124	          0.00000000	         -0.13397711	          0.00000000	          0.00000000	          0.00000000	          0.00000000	         -1.16393048	          0.00000000	
          0.71300000	          0.00000000	          0.00000000	          0.00000000	          0.00000000	          0.00000000	          0.00000000	       -113.98215276	        501.42197194	        -15.52413265	         -0.67807496	          0.00000000	         -0.13391285	          0.00000000	          0.00000000	          0.00000000	          0.00000000	         -1.15770752	          0.00000000	
          0.71400000	          0.00000000	          0.00000000	          0.00000000	          0.00000000	          0.00000000	          0.00000000	       -115.31150944	        507.20553748	        -16.17581328	         -0.67738802	          0.00000000	         -0.13385668	          0.00000000	          0.00000000	          0.00000000	          0.00000000	         -1.14926441	          0.00000000	
          0.71500000	          0.00000000	          0.00000000	          0.00000000	          0.00000000	          0.00000000	          0.00000000	       -116.60923139	        513.03410295	        -16.79911644	         -0.67671092	          0.00000000	         -0.13380833	          0.00000000	          0.00000000	          0.00000000	          0.00000000	         -1.13868609	          0.00000000	
          0.71600000	          0.00000000	          0.00000000	          0.00000000	          0.00000000	          0.00000000	          0.00000000	       -117.87416227	        518.90506365	        -17.39417561	         -0.67604410	          0.00000000	         -0.13376754	          0.00000000	          0.00000000	          0.00000000	          0.00000000	         -1.12606699	          0.00000000	
          0.71700000	          0.00000000	          0.00000000	          0.00000000	          0.00000000	          0.00000000	          0.00000000	       -119.10514285	        524.81533057	        -17.96125100	         -0.67538797	          0.00000000	         -0.13373401	          0.00000000	          0.00000000	          0.00000000	          0.00000000	         -1.11151034	          0.00000000	
          0.71800000	          0.00000000	          0.00000000	          0.00000000	          0.00000000	          0.00000000	          0.00000000	       -120.30102222	        530.76133223	        -18.50071965	         -0.67474288	          0.00000000	         -0.13370740	          0.00000000	          0.00000000	          0.00000000	          0.00000000	         -1.09512712	          0.00000000	
          0.71900000	          0.00000000	          0.00000000	          0.00000000	          0.00000000	          0.00000000	          0.00000000	       -121.46066779	        536.73902882	        -19.01306484	         -0.67410916	          0.00000000	         -0.13368737	          0.00000000	          0.00000000	          0.00000000	          0.00000000	         -1.07703447	          0.00000000	
          0.72000000	          0.00000000	          0.00000000	          0.00000000	          0.00000000	          0.00000000	          0.00000000	       -122.58297505	        542.74393603	        -19.49886595	         -0.67348707	          0.00000000	         -0.13367357	          0.00000000	          0.00000000	          0.00000000	          0.00000000	         -1.05735403	          0.00000000	
          0.72100000	          0.00000000	          0.00000000	          0.00000000	          0.00000000	          0.00000000	          0.00000000	       -123.66687824	        548.77115191	        -19.95878936	         -0.67287685	          0.00000000	         -0.13366562	          0.00000000	          0.00000000	          0.00000000	          0.00000000	         -1.03621034	          0.00000000	
          0.72200000	          0.00000000	          0.00000000	          0.00000000	          0.00000000	          0.00000000	          0.00000000	       -124.71136079	        554.81538674	        -20.39357986	         -0.67227867	          0.00000000	         -0.13366313	          0.00000000	          0.00000000	          0.00000000	          0.00000000	         -1.01372940	          0.00000000	
          0.72300000	          0.00000000	          0.00000000	          0.00000000	          0.00000000	          0.00000000	          0.00000000	       -125.71546493	        560.87099969	        -20.80405200	         -0.67169266	          0.00000000	         -0.13366569	          0.00000000	          0.00000000	          0.00000000	          0.00000000	         -0.99003724	          0.00000000	
          0.72400000	          0.00000000	          0.00000000	          0.00000000	          0.00000000	          0.00000000	          0.00000000	       -126.67830108	        566.93204196	        -21.19108049	         -0.67111890	          0.00000000	         -0.13367291	          0.00000000	          0.00000000	          0.00000000	          0.00000000	         -0.96525861	          0.00000000	
